<svg width="36" height="36" viewBox="0 0 36 36" fill="none" xmlns="http://www.w3.org/2000/svg">
<path d="M27.9751 16.3968L35.9314 8.44053L27.5595 0.00927734L19.6033 8.0249L19.1876 7.60928C18.4751 6.95615 17.347 6.95615 16.6939 7.60928L4.87825 19.3655C-0.227999 24.4718 -1.23737 30.053 2.3845 33.6155C3.69075 34.9812 5.53138 35.753 7.49075 35.753C10.3408 35.753 13.6064 34.1499 16.6939 31.1218L28.4501 19.3655C29.1626 18.653 29.1626 17.5249 28.4501 16.8718L27.9751 16.3968ZM27.5595 1.73115L34.2689 8.44053L27.1439 15.5655L24.1751 12.6562L25.8376 10.9937L25.0064 10.1624L23.3439 11.8249L20.3751 8.85615L27.5595 1.73115ZM27.5595 18.5343L15.8033 30.2905C11.2314 34.8624 6.24388 35.8124 3.21575 32.7843C0.187627 29.7562 1.13763 24.7687 5.7095 20.1968L17.4658 8.44053C17.7033 8.20303 18.0595 8.20303 18.297 8.44053L27.5001 17.6437C27.797 17.8812 27.797 18.2968 27.5595 18.5343C27.5595 18.4749 27.5595 18.4749 27.5595 18.5343ZM25.0658 8.44053L26.7283 6.77803L25.0658 5.11553L23.3439 6.71865L25.0658 8.44053ZM25.897 6.71865L25.0658 7.5499L24.2345 6.71865L25.0658 5.8874L25.897 6.71865ZM30.9439 10.9343L29.2814 9.27178L27.6189 10.9343L29.2814 12.6562L30.9439 10.9343ZM29.2814 10.103L30.1126 10.9343L29.2814 11.7655L28.4501 10.9343L29.2814 10.103ZM18.5939 12.003C18.2376 11.6468 17.7033 11.6468 17.347 12.003L8.91575 20.3749C8.5595 20.7312 8.5595 21.2655 8.91575 21.6218L14.3783 27.0843C14.7345 27.4405 15.2689 27.4405 15.6251 27.0843L23.997 18.7124C24.3533 18.3562 24.3533 17.8218 23.997 17.4655L18.5939 12.003ZM23.5814 18.2968L15.2095 26.6687C15.0908 26.7874 14.9126 26.7874 14.7939 26.6687L9.33138 21.2062C9.21263 21.0874 9.21263 20.9093 9.33138 20.7905L17.7033 12.4187C17.7626 12.3593 17.822 12.3593 17.9408 12.3593C18.0001 12.3593 18.1189 12.4187 18.1189 12.4187L23.5814 17.8812C23.7001 17.9999 23.7001 18.178 23.5814 18.2968ZM8.91575 23.3437C8.5595 22.9874 8.02513 22.9874 7.66888 23.3437L6.00638 25.0062C5.65013 25.3624 5.65013 25.8968 6.00638 26.253L9.80638 30.053C9.9845 30.2312 10.222 30.2905 10.4595 30.2905C10.697 30.2905 10.9345 30.1718 11.1126 30.053L12.7751 28.3905C13.1314 28.0343 13.1314 27.4999 12.7751 27.1437L8.91575 23.3437ZM12.2408 27.9749L10.5783 29.6374C10.5189 29.6968 10.4595 29.6968 10.3408 29.6968C10.2814 29.6968 10.1626 29.6968 10.1033 29.6374L6.30325 25.8374C6.1845 25.7187 6.1845 25.5405 6.30325 25.4218L7.96575 23.7593C8.02513 23.6999 8.0845 23.6999 8.20325 23.6405C8.26263 23.6405 8.38138 23.6999 8.44075 23.7593L12.2408 27.5593C12.3595 27.678 12.3595 27.8562 12.2408 27.9749ZM7.19388 29.4593C7.19388 29.103 6.95638 28.8655 6.6595 28.8062H6.60013C5.82825 28.8655 5.11575 28.628 4.522 28.153C4.40325 28.0343 4.22513 27.9749 4.047 28.0343C3.86888 28.0343 3.75013 28.153 3.63138 28.3312C2.80013 29.7562 3.27513 31.5374 4.64075 32.428C5.05638 32.6655 5.59075 32.8437 6.12513 32.8437C6.6595 32.8437 7.19388 32.6655 7.66888 32.428C7.78763 32.3093 7.90638 32.1905 7.96575 32.0124C7.96575 31.8343 7.96575 31.6562 7.847 31.5374C7.372 30.8843 7.1345 30.1718 7.19388 29.4593ZM4.87825 31.1218C4.46263 30.7062 4.2845 30.1124 4.40325 29.5187C4.87825 29.7562 5.472 29.9343 6.00638 29.9937C6.06575 30.528 6.1845 31.1218 6.48138 31.5968C5.88763 31.7155 5.29388 31.5374 4.87825 31.1218ZM16.5751 20.9093C16.6939 21.2062 16.8126 21.503 16.8126 21.8593C16.8126 22.1562 16.7533 22.453 16.5751 22.6905C16.4564 22.928 16.2783 23.2249 16.0408 23.403C15.922 23.5812 15.7439 23.6999 15.5658 23.8187C15.447 23.9374 15.2689 23.9968 15.1501 24.0562L14.9126 23.5812C15.0314 23.5218 15.1501 23.4624 15.2689 23.3437C15.447 23.2249 15.5658 23.1062 15.6845 22.9874C15.8033 22.8687 15.922 22.6905 16.0408 22.5124C16.1595 22.3343 16.2189 22.0968 16.2189 21.9187C16.2189 21.6812 16.1595 21.4437 16.1001 21.2062C15.9814 20.9093 15.8033 20.6718 15.6251 20.4937L14.1408 21.978L13.7845 21.5624L15.2095 20.1374C15.0314 19.9593 14.7939 19.8405 14.5564 19.7218C14.3783 19.6624 14.1408 19.603 13.9033 19.603C13.7251 19.603 13.4876 19.6624 13.3095 19.7218C13.1314 19.7812 12.9533 19.9593 12.8345 20.078C12.7158 20.1968 12.5376 20.3749 12.4783 20.553C12.4189 20.6718 12.3001 20.7905 12.3001 20.9687L11.8845 20.7312C11.9439 20.553 12.0033 20.3749 12.122 20.1968C12.2408 20.0187 12.4189 19.8405 12.597 19.6624C12.8345 19.4843 13.072 19.3062 13.3095 19.1874C13.547 19.0687 13.8439 19.0093 14.0814 19.0093C14.3783 19.0093 14.6751 19.128 14.972 19.2468C15.3283 19.4249 15.6251 19.6624 15.922 19.9593C16.1595 20.1968 16.397 20.553 16.5751 20.9093ZM17.2876 14.9718L20.7908 18.4749L20.3751 18.9499L17.2283 15.803L15.6251 17.4062L18.772 20.553L18.3564 20.9687L14.8533 17.4655L17.2876 14.9718Z" fill="#0082FA"/>
</svg>
