<svg width="32" height="32" viewBox="0 0 32 32" fill="none" xmlns="http://www.w3.org/2000/svg">
<path d="M30.9455 22.5806C30.2236 21.3431 28.7283 20.0025 25.7892 20.415C25.4283 20.4665 25.0673 20.3634 24.8095 20.1056L19.2924 14.5368L26.7689 7.06026H27.697L30.9455 2.41964L30.1205 1.59464L29.7595 1.95558L30.1205 1.59464L29.2439 0.718077L24.6033 3.96651V4.89464L17.0752 12.3196L11.9189 7.16339C11.6611 6.90558 11.558 6.54464 11.6095 6.1837C12.022 3.24464 10.6299 1.74933 9.39235 1.02745C8.05173 0.254014 4.85485 -0.519423 4.08141 0.460264C3.97829 0.614952 3.72048 1.13058 4.39079 1.85245L6.55641 4.01808C6.55641 4.32745 5.78298 5.3587 4.85485 5.82276C4.6486 5.92589 4.2361 6.08058 4.02985 5.87433L1.81266 3.65714C1.14235 2.93526 0.626727 3.19308 0.47204 3.34776C-0.507648 4.1212 0.214227 7.31808 1.03923 8.6587C1.7611 9.8962 3.25641 11.2884 6.19548 10.8243C6.55641 10.7728 6.91735 10.8759 7.17516 11.1337L11.8158 15.7743H11.7642C11.197 15.6712 10.6299 15.8259 10.2174 16.2384L8.51579 17.8884L4.39079 22.0134L2.27673 24.1275C0.88454 25.5196 0.88454 27.84 2.27673 29.2321C3.66891 30.6243 5.98923 30.6243 7.38141 29.2321L9.49548 27.1181L13.6205 22.9931L15.2705 21.3431C15.683 20.9306 15.8377 20.3634 15.7345 19.7962V19.7446L20.0142 24.0243C20.272 24.2821 20.3752 24.6431 20.3236 25.004C19.9111 27.9431 21.3033 29.3868 22.5408 30.1603C23.7267 30.779 25.0674 31.14 26.408 31.1915C26.9236 31.2431 27.4392 31.0884 27.8517 30.7275C28.0064 30.5212 28.2642 30.0571 27.5424 29.3353L25.3767 27.1696C25.3767 26.8603 26.1502 25.829 27.0783 25.365C27.233 25.2618 27.697 25.1071 27.9033 25.3134L30.0689 27.479C30.2752 27.7368 30.6361 27.8915 30.997 27.9431C31.1517 27.9431 31.358 27.8915 31.4611 27.7884C32.4923 27.1181 31.7705 23.9212 30.9455 22.5806ZM29.2955 2.31651L29.5533 2.57433L29.2439 2.98683L28.6252 2.36808L29.0377 2.0587L29.2955 2.31651ZM25.583 5.30714V4.48214L28.2127 2.67745L28.9345 3.39933L27.1298 6.02901H26.3048L16.508 15.8259L17.2299 16.5478L17.4361 16.3415L22.4892 21.3946C22.5924 21.4978 22.6439 21.6009 22.6439 21.7556C22.6439 21.9103 22.5924 22.0134 22.4892 22.1165C22.283 22.3228 21.9736 22.3228 21.7674 22.1165L17.6939 18.0431C17.9002 17.6306 17.8486 17.115 17.4877 16.754L16.147 15.4134L14.8064 14.0728C14.4455 13.7118 13.9299 13.6603 13.5174 13.8665L9.34079 9.68995C9.13454 9.4837 9.13454 9.17433 9.34079 8.96808C9.54704 8.76183 9.85641 8.76183 10.0627 8.96808L15.2189 14.1243L15.0127 14.3306L15.7345 15.0525L25.583 5.30714ZM16.0955 18.3009L13.3111 15.5165V15.465L13.9814 14.7946C14.033 14.7431 14.0845 14.7431 14.0845 14.7946L15.4252 16.1353L16.7658 17.4759C16.8174 17.5275 16.8174 17.579 16.7658 17.579L16.0955 18.3009ZM7.5361 4.32745V4.27589L7.89704 4.63683V4.84308C7.69079 5.61651 6.2986 7.0087 5.26735 7.31808C5.0611 7.36964 4.85485 7.36964 4.70016 7.21495L4.49391 7.0087C4.59704 7.0087 4.75173 6.95714 4.85485 6.95714C5.8861 6.5962 7.22673 5.30714 7.5361 4.32745ZM6.04079 9.84464C4.13298 10.1025 2.74079 9.53526 1.91579 8.14308C1.29704 6.95714 0.987665 5.66808 1.03923 4.32745L1.09079 4.37901L2.68923 5.97745L4.28766 7.57589C4.49391 7.78214 4.75173 7.88526 5.00954 7.8337C5.16423 7.8337 5.26735 7.8337 5.42204 7.78214C6.60798 7.47276 8.20641 5.87433 8.41266 4.99776C8.51579 4.73995 8.46423 4.48214 8.30954 4.27589L7.32985 3.34776L5.11266 1.13058L5.0611 1.07901C6.40173 1.02745 7.69079 1.33683 8.87673 1.95558C10.2689 2.78058 10.8361 4.17276 10.5783 6.08058C10.4752 6.75089 10.733 7.47276 11.197 7.93683L16.3533 13.0931L15.6314 13.815L10.4752 8.6587C10.0627 8.2462 9.44391 8.2462 9.03141 8.6587C8.61891 9.0712 8.61891 9.68995 9.03141 10.1025L13.1564 14.2275L12.6408 14.7431C12.5892 14.7946 12.5377 14.8978 12.4861 15.0009L7.89704 10.4634C7.43298 9.94776 6.7111 9.74151 6.04079 9.84464ZM9.90798 18.0946C10.0627 18.1462 10.2174 18.1978 10.3205 18.3525L10.4236 18.4556C10.7845 18.8165 10.7845 19.4353 10.4236 19.7962L6.2986 23.9212C5.93766 24.2821 5.31891 24.2821 4.95798 23.9212L4.85485 23.8181C4.75173 23.715 4.6486 23.5603 4.6486 23.4056L9.90798 18.0946ZM4.85485 29.3353C3.4111 29.3353 2.27673 28.2009 2.27673 26.7571C2.27673 26.0353 2.53454 25.365 3.05016 24.9009L6.7111 28.5618C6.24704 29.0774 5.57673 29.3353 4.85485 29.3353ZM8.25798 27.0149C8.10329 26.9634 8.00016 26.9118 7.84548 26.7571L7.74235 26.7056C7.38141 26.3446 7.38141 25.7259 7.74235 25.365L11.8674 21.24C12.2283 20.879 12.847 20.879 13.208 21.24L13.3111 21.3431C13.4142 21.4462 13.5174 21.6009 13.5689 21.7556L8.25798 27.0149ZM14.7549 19.8478L14.8064 20.0025C14.858 20.2087 14.7548 20.4665 14.6002 20.6212L13.9299 21.3431C13.8783 21.1884 13.7752 21.0853 13.672 20.9821L13.5689 20.879C13.0017 20.3118 12.0736 20.3118 11.5064 20.879L7.38141 25.004C6.81423 25.5712 6.81423 26.4993 7.38141 27.0665L7.48454 27.1696C7.58766 27.2728 7.69079 27.3759 7.84548 27.4275L7.07204 28.2009L3.4111 24.54L4.18454 23.7665C4.2361 23.9212 4.33923 24.0243 4.44235 24.1275L4.54548 24.2306C5.11266 24.7978 6.04079 24.7978 6.60798 24.2306L10.733 20.1056C11.3002 19.5384 11.3002 18.6103 10.733 18.0431L10.6299 17.94C10.5267 17.8368 10.372 17.7337 10.2689 17.6821L10.9392 17.0118C11.0939 16.8571 11.3517 16.754 11.558 16.8056L11.7642 16.8571C12.1767 16.9603 12.5892 16.8056 12.847 16.5478C13.0017 16.4446 13.1049 16.29 13.208 16.0837L15.4767 18.3525C14.9095 18.6618 14.6002 19.2806 14.7549 19.8478ZM26.9236 24.4368C26.3564 24.6946 25.8408 25.004 25.3767 25.4681C25.0158 25.7775 24.758 26.19 24.5517 26.6025C24.5002 26.7056 24.4486 26.8603 24.4486 26.9634L24.0877 26.6025C23.9845 26.4993 24.1908 25.8806 25.0158 25.1071C25.8408 24.3337 26.9752 23.6634 27.3877 24.0759L27.5939 24.2821C27.3361 24.3337 27.1299 24.3853 26.9236 24.4368ZM30.9455 26.9118L30.8939 26.8603L28.7283 24.6431L27.7486 23.6634C27.0783 22.9931 25.6861 23.715 24.6549 24.7462C24.2939 25.1071 23.9845 25.4681 23.7783 25.9321C23.4689 26.5509 23.572 26.8603 23.7783 27.0149L24.7064 27.9431L26.872 30.1087L26.9236 30.1603C25.583 30.2118 24.2939 29.9025 23.108 29.2837C21.7158 28.4587 21.1486 27.0665 21.4064 25.1587C21.5095 24.4884 21.2517 23.7665 20.7877 23.3025L16.6111 19.1259C16.7142 19.0743 16.7658 19.0228 16.8689 18.9712L17.3845 18.4556L21.4064 22.4775C21.6127 22.6837 21.8705 22.7868 22.1283 22.7868C22.6955 22.7868 23.1595 22.3228 23.1595 21.7556C23.1595 21.4978 23.0564 21.24 22.8502 21.0337L17.797 15.9806L18.5705 15.2071L24.0877 20.7759C24.6033 21.2915 25.2736 21.4978 25.9439 21.3946C27.8517 21.1368 29.2439 21.704 30.0689 23.0962C30.7392 24.2821 30.997 25.5712 30.9455 26.9118Z" fill="#0082FA"/>
</svg>
