<svg xmlns="http://www.w3.org/2000/svg" width="720" height="221" viewBox="0 0 720 221" fill="none" style="&#10; border: 1px solid white;&#10;">
<path d="M247.702 29.3878C255.817 29.3878 262.396 22.8091 262.396 14.6939C262.396 6.57868 255.817 0 247.702 0C239.587 0 233.008 6.57868 233.008 14.6939C233.008 22.8091 239.587 29.3878 247.702 29.3878Z" fill="#1FD552"/>
<path d="M60.95 173.596C97.52 173.596 121.402 144.826 121.402 112.642C121.402 80.215 97.52 51.201 60.95 51.201C38.809 51.201 22.141 61.197 12.19 74.607V0H0V170.67H12.19V150.433C22.141 163.843 38.809 173.596 60.95 173.596ZM58.462 162.624C38.311 162.624 19.902 150.677 12.19 134.098V90.943C20.151 74.851 38.063 62.173 58.462 62.173C87.32 62.173 108.964 84.116 108.964 112.642C108.964 140.681 87.32 162.624 58.462 162.624Z" fill="black"/>
<path d="M154.454 170.67H166.644V94.112C173.113 79.971 190.029 63.392 214.658 63.392V51.201C193.015 51.201 174.605 64.611 166.644 78.264V54.127H154.454V170.67Z" fill="black"/>
<path d="M241.938 170.67H254.128V54.127H241.938V170.67Z" fill="black"/>
<path d="M338.185 173.596C365.55 173.596 387.691 161.649 387.691 140.437C387.691 117.275 364.057 111.423 341.17 106.059C322.76 101.671 304.849 97.77 304.849 82.897C304.849 71.194 315.297 62.173 339.428 62.173C355.35 62.173 371.023 67.537 381.72 74.12V61.929C371.272 55.346 354.106 51.201 338.682 51.201C308.58 51.201 292.659 63.879 292.659 82.897C292.659 103.621 312.561 110.692 334.951 116.056C358.584 121.663 375.252 126.296 375.252 140.193C375.252 154.334 360.574 162.624 337.936 162.624C315.795 162.624 297.137 154.091 288.927 148.483V161.161C297.883 167.257 316.79 173.596 338.185 173.596Z" fill="black"/>
<path d="M421.518 170.67H433.708V111.423L503.863 170.67H522.024L446.645 106.791L513.068 54.127H495.405L433.708 103.133V0H421.518V170.67Z" fill="black"/>
<path d="M573.907 173.596C579.38 173.596 585.102 172.864 590.077 170.182V158.723C586.346 160.917 582.365 162.137 577.638 162.137C566.195 162.137 560.224 156.041 560.224 143.607V0H548.034V146.289C548.034 167.988 561.966 173.596 573.907 173.596Z" fill="black"/>
<path d="M618.997 220.408C638.153 220.408 649.597 206.267 660.045 183.836L720 54.127H706.566L660.792 154.091L613.524 54.127H599.842L654.821 168.476C642.88 194.808 634.421 209.437 617.505 209.437C611.285 209.437 606.31 208.217 601.583 205.535V216.751C605.563 219.433 612.032 220.408 618.997 220.408Z" fill="black"/>
</svg>
