<svg width="37" height="37" viewBox="0 0 37 37" fill="none" xmlns="http://www.w3.org/2000/svg">
<path d="M35.8438 27.2875V24.7437L31.2188 15.4937V12.1406C31.2188 11.5047 30.6984 10.9844 30.0625 10.9844H24.2812V5.78125H30.0625C30.6984 5.78125 31.2188 5.26094 31.2188 4.625V1.15625C31.2188 0.520312 30.6984 0 30.0625 0H14.4531C13.8172 0 13.2969 0.520312 13.2969 1.15625V4.625C13.2969 5.26094 13.8172 5.78125 14.4531 5.78125H20.2344V10.9844H17.3438V8.09375H9.25V10.9844H6.9375C6.30156 10.9844 5.78125 11.5047 5.78125 12.1406V15.4937L1.15625 24.7437V27.2875C0.4625 27.5188 0 28.2125 0 28.9062V35.2656C0 36.2484 0.751562 37 1.73438 37H35.2656C36.2484 37 37 36.2484 37 35.2656V28.9062C37 28.1547 36.5375 27.5188 35.8438 27.2875ZM14.4531 4.625V1.15625H30.0625V4.625H14.4531ZM21.3906 5.78125H23.125V10.9844H21.3906V5.78125ZM10.4062 9.25H16.1875V13.2969H10.4062V9.25ZM6.9375 15.725V12.1406H9.25V13.2969H8.09375V14.4531H18.5V13.2969H17.3438V12.1406H30.0625V15.725L34.6875 24.975V27.1719H2.3125V24.975L6.9375 15.725ZM35.8438 35.2656C35.8438 35.6125 35.6125 35.8438 35.2656 35.8438H19.1359C19.425 34.1672 20.8703 32.9531 22.5469 32.9531H35.8438V35.2656ZM35.8438 32.375H22.5469C20.5234 32.375 18.8469 33.8781 18.5578 35.8438H1.73438C1.3875 35.8438 1.15625 35.6125 1.15625 35.2656V28.9062C1.15625 28.5594 1.3875 28.3281 1.73438 28.3281H35.2656C35.6125 28.3281 35.8438 28.5594 35.8438 28.9062V32.375ZM7.51562 29.4844H34.6875V30.0625H7.51562V29.4844ZM33.5312 25.4375H3.46875V24.8594H33.5312V25.4375ZM28.9062 16.1875H8.09375V15.6094H28.9062V16.1875ZM29.4844 4.04688H15.0312V3.46875H29.4844V4.04688ZM29.4844 2.3125H15.0312V1.73438H29.4844V2.3125ZM4.33594 30.6406C3.2375 30.6406 2.3125 31.5656 2.3125 32.6641C2.3125 33.7625 3.2375 34.6875 4.33594 34.6875C5.43437 34.6875 6.35938 33.7625 6.35938 32.6641C6.35938 31.5656 5.43437 30.6406 4.33594 30.6406ZM4.33594 34.1094C3.52656 34.1094 2.89062 33.4734 2.89062 32.6641C2.89062 31.8547 3.52656 31.2188 4.33594 31.2188C5.14531 31.2188 5.78125 31.8547 5.78125 32.6641C5.78125 33.4734 5.14531 34.1094 4.33594 34.1094ZM10.9844 9.82812H15.6094V10.4062H10.9844V9.82812ZM10.9844 10.9844H15.6094V11.5625H10.9844V10.9844ZM10.9844 12.1406H15.6094V12.7188H10.9844V12.1406ZM4.04688 31.7969H4.625V33.5312H4.04688V31.7969ZM14.8578 21.9688H12.0828L11.6203 23.7031H14.6266L14.8578 21.9688ZM14.1062 23.125H12.3719L12.5453 22.5469H14.2219L14.1062 23.125ZM29.5422 23.7031H32.5484L31.6812 21.9688H28.9062L29.5422 23.7031ZM31.3344 22.5469L31.6234 23.125H29.9469L29.7156 22.5469H31.3344ZM18.2109 21.9688H15.4359L15.2047 23.7031H18.2109V21.9688ZM17.6328 23.125H15.8984L15.9563 22.5469H17.6328V23.125ZM8.09375 23.7031H11.0422L11.5047 21.9688H8.72969L8.09375 23.7031ZM9.13438 22.5469H10.7531L10.5797 23.125H8.90312L9.13438 22.5469ZM18.7891 23.7031H21.7953L21.5641 21.9688H18.7891V23.7031ZM19.3672 22.5469H21.0438L21.1016 23.125H19.3672V22.5469ZM8.09375 21.9688H5.31875L4.45156 23.7031H7.45781L8.09375 21.9688ZM7.05312 23.125H5.37656L5.66563 22.5469H7.28438L7.05312 23.125ZM28.9062 23.7031L28.2703 21.9688H25.4953L25.9578 23.7031H28.9062ZM27.8656 22.5469L28.0969 23.125H26.4203L26.2469 22.5469H27.8656ZM25.3219 23.7031L24.8594 21.9688H22.0844L22.3156 23.7031H25.3219ZM24.4547 22.5469L24.6281 23.125H22.8937L22.8359 22.5469H24.4547ZM18.2109 19.6562H15.725L15.4937 21.3906H18.2109V19.6562ZM17.6328 20.8125H16.1875L16.2453 20.2344H17.6328V20.8125ZM12.0828 19.6562H9.59688L8.96094 21.3906H11.6203L12.0828 19.6562ZM11.1578 20.8125H9.77031L10.0016 20.2344H11.3313L11.1578 20.8125ZM28.675 21.3906H31.3922L30.525 19.6562H28.0391L28.675 21.3906ZM30.1781 20.2344L30.4672 20.8125H29.0797L28.8484 20.2344H30.1781ZM15.1469 19.6562H12.6609L12.1984 21.3906H14.9156L15.1469 19.6562ZM14.3953 20.8125H12.95L13.1234 20.2344H14.4531L14.3953 20.8125ZM18.7891 21.3906H21.5063L21.275 19.6562H18.7891V21.3906ZM19.3672 20.2344H20.7547L20.8125 20.8125H19.3094L19.3672 20.2344ZM8.96094 19.6562H6.475L5.60781 21.3906H8.325L8.96094 19.6562ZM7.92031 20.8125H6.53281L6.82188 20.2344H8.15156L7.92031 20.8125ZM24.7437 21.3906L24.2812 19.6562H21.7953L22.0266 21.3906H24.7437ZM23.8766 20.2344L24.05 20.8125H22.6047L22.5469 20.2344H23.8766ZM28.0391 21.3906L27.4031 19.6562H24.9172L25.3797 21.3906H28.0391ZM26.9984 20.2344L27.2297 20.8125H25.8422L25.6688 20.2344H26.9984ZM12.6609 17.3438H10.4641L9.82812 19.0781H12.1984L12.6609 17.3438ZM11.7359 18.5H10.6375L10.8687 17.9219H11.9094L11.7359 18.5ZM27.8078 19.0781H30.2359L29.3687 17.3438H27.1719L27.8078 19.0781ZM29.0219 17.9219L29.3109 18.5H28.2125L27.9813 17.9219H29.0219ZM18.2109 17.3438H16.0141L15.7828 19.0781H18.2109V17.3438ZM17.6328 18.5H16.4766L16.5344 17.9219H17.6328V18.5ZM15.4359 17.3438H13.2391L12.7766 19.0781H15.2047L15.4359 17.3438ZM14.6844 18.5H13.5281L13.7016 17.9219H14.8L14.6844 18.5ZM18.7891 17.3438V19.0781H21.2172L20.9859 17.3438H18.7891ZM19.3672 18.5V17.9219H20.4656L20.5234 18.5H19.3672ZM9.82812 17.3438H7.63125L6.76406 19.0781H9.19219L9.82812 17.3438ZM8.7875 18.5H7.68906L7.97813 17.9219H9.01875L8.7875 18.5ZM27.1719 19.0781L26.5359 17.3438H24.3391L24.8016 19.0781H27.1719ZM26.1313 17.9219L26.3625 18.5H25.2641L25.0906 17.9219H26.1313ZM24.1656 19.0781L23.7031 17.3438H21.5063L21.7375 19.0781H24.1656ZM23.2984 17.9219L23.4719 18.5H22.3156L22.2578 17.9219H23.2984Z" fill="#0082FA"/>
</svg>
