<svg width="39" height="36" viewBox="0 0 39 36" fill="none" xmlns="http://www.w3.org/2000/svg">
<path d="M28.3359 5.0625H10.6641C10.1766 5.0625 9.75 5.45625 9.75 5.90625V8.15625C9.75 8.60625 10.1766 9 10.6641 9H28.3359C28.8234 9 29.25 8.60625 29.25 8.15625V5.90625C29.25 5.45625 28.8234 5.0625 28.3359 5.0625ZM28.6406 8.15625C28.6406 8.325 28.5187 8.4375 28.3359 8.4375H10.6641C10.4812 8.4375 10.3594 8.325 10.3594 8.15625V5.90625C10.3594 5.7375 10.4812 5.625 10.6641 5.625H28.3359C28.5187 5.625 28.6406 5.7375 28.6406 5.90625V8.15625ZM10.6641 3.9375C11.1516 3.9375 11.5781 3.54375 11.5781 3.09375C11.5781 2.64375 11.1516 2.25 10.6641 2.25C10.1766 2.25 9.75 2.64375 9.75 3.09375C9.75 3.54375 10.1766 3.9375 10.6641 3.9375ZM10.6641 2.8125C10.8469 2.8125 10.9688 2.925 10.9688 3.09375C10.9688 3.2625 10.8469 3.375 10.6641 3.375C10.4812 3.375 10.3594 3.2625 10.3594 3.09375C10.3594 2.925 10.4812 2.8125 10.6641 2.8125ZM11.8828 6.1875C11.3953 6.1875 10.9688 6.58125 10.9688 7.03125C10.9688 7.48125 11.3953 7.875 11.8828 7.875C12.3703 7.875 12.7969 7.48125 12.7969 7.03125C12.7969 6.58125 12.3703 6.1875 11.8828 6.1875ZM11.8828 7.3125C11.7 7.3125 11.5781 7.2 11.5781 7.03125C11.5781 6.8625 11.7 6.75 11.8828 6.75C12.0656 6.75 12.1875 6.8625 12.1875 7.03125C12.1875 7.2 12.0656 7.3125 11.8828 7.3125ZM27.1172 6.1875C26.6297 6.1875 26.2031 6.58125 26.2031 7.03125C26.2031 7.48125 26.6297 7.875 27.1172 7.875C27.6047 7.875 28.0312 7.48125 28.0312 7.03125C28.0312 6.58125 27.6047 6.1875 27.1172 6.1875ZM27.1172 7.3125C26.9344 7.3125 26.8125 7.2 26.8125 7.03125C26.8125 6.8625 26.9344 6.75 27.1172 6.75C27.3 6.75 27.4219 6.8625 27.4219 7.03125C27.4219 7.2 27.3 7.3125 27.1172 7.3125ZM24.6797 6.1875C24.1922 6.1875 23.7656 6.58125 23.7656 7.03125C23.7656 7.48125 24.1922 7.875 24.6797 7.875C25.1672 7.875 25.5938 7.48125 25.5938 7.03125C25.5938 6.58125 25.1672 6.1875 24.6797 6.1875ZM24.6797 7.3125C24.4969 7.3125 24.375 7.2 24.375 7.03125C24.375 6.8625 24.4969 6.75 24.6797 6.75C24.8625 6.75 24.9844 6.8625 24.9844 7.03125C24.9844 7.2 24.8625 7.3125 24.6797 7.3125ZM28.3359 2.25C27.8484 2.25 27.4219 2.64375 27.4219 3.09375C27.4219 3.54375 27.8484 3.9375 28.3359 3.9375C28.8234 3.9375 29.25 3.54375 29.25 3.09375C29.25 2.64375 28.8234 2.25 28.3359 2.25ZM28.3359 3.375C28.1531 3.375 28.0312 3.2625 28.0312 3.09375C28.0312 2.925 28.1531 2.8125 28.3359 2.8125C28.5187 2.8125 28.6406 2.925 28.6406 3.09375C28.6406 3.2625 28.5187 3.375 28.3359 3.375ZM10.6641 30.375C10.1766 30.375 9.75 30.7687 9.75 31.2188C9.75 31.6688 10.1766 32.0625 10.6641 32.0625C11.1516 32.0625 11.5781 31.6688 11.5781 31.2188C11.5781 30.7687 11.1516 30.375 10.6641 30.375ZM10.6641 31.5C10.4812 31.5 10.3594 31.3875 10.3594 31.2188C10.3594 31.05 10.4812 30.9375 10.6641 30.9375C10.8469 30.9375 10.9688 31.05 10.9688 31.2188C10.9688 31.3875 10.8469 31.5 10.6641 31.5ZM28.3359 30.375C27.8484 30.375 27.4219 30.7687 27.4219 31.2188C27.4219 31.6688 27.8484 32.0625 28.3359 32.0625C28.8234 32.0625 29.25 31.6688 29.25 31.2188C29.25 30.7687 28.8234 30.375 28.3359 30.375ZM28.3359 31.5C28.1531 31.5 28.0312 31.3875 28.0312 31.2188C28.0312 31.05 28.1531 30.9375 28.3359 30.9375C28.5187 30.9375 28.6406 31.05 28.6406 31.2188C28.6406 31.3875 28.5187 31.5 28.3359 31.5ZM13.7109 6.75H22.8516V7.3125H13.7109V6.75ZM26.2031 3.375H12.7969V2.8125H26.2031V3.375ZM28.3359 10.125H10.6641C10.1766 10.125 9.75 10.5188 9.75 10.9688V13.2188C9.75 13.6687 10.1766 14.0625 10.6641 14.0625H28.3359C28.8234 14.0625 29.25 13.6687 29.25 13.2188V10.9688C29.25 10.5188 28.8234 10.125 28.3359 10.125ZM28.6406 13.2188C28.6406 13.3875 28.5187 13.5 28.3359 13.5H10.6641C10.4812 13.5 10.3594 13.3875 10.3594 13.2188V10.9688C10.3594 10.8 10.4812 10.6875 10.6641 10.6875H28.3359C28.5187 10.6875 28.6406 10.8 28.6406 10.9688V13.2188ZM11.8828 11.25C11.3953 11.25 10.9688 11.6438 10.9688 12.0938C10.9688 12.5437 11.3953 12.9375 11.8828 12.9375C12.3703 12.9375 12.7969 12.5437 12.7969 12.0938C12.7969 11.6438 12.3703 11.25 11.8828 11.25ZM11.8828 12.375C11.7 12.375 11.5781 12.2625 11.5781 12.0938C11.5781 11.925 11.7 11.8125 11.8828 11.8125C12.0656 11.8125 12.1875 11.925 12.1875 12.0938C12.1875 12.2625 12.0656 12.375 11.8828 12.375ZM27.1172 11.25C26.6297 11.25 26.2031 11.6438 26.2031 12.0938C26.2031 12.5437 26.6297 12.9375 27.1172 12.9375C27.6047 12.9375 28.0312 12.5437 28.0312 12.0938C28.0312 11.6438 27.6047 11.25 27.1172 11.25ZM27.1172 12.375C26.9344 12.375 26.8125 12.2625 26.8125 12.0938C26.8125 11.925 26.9344 11.8125 27.1172 11.8125C27.3 11.8125 27.4219 11.925 27.4219 12.0938C27.4219 12.2625 27.3 12.375 27.1172 12.375ZM24.6797 11.25C24.1922 11.25 23.7656 11.6438 23.7656 12.0938C23.7656 12.5437 24.1922 12.9375 24.6797 12.9375C25.1672 12.9375 25.5938 12.5437 25.5938 12.0938C25.5938 11.6438 25.1672 11.25 24.6797 11.25ZM24.6797 12.375C24.4969 12.375 24.375 12.2625 24.375 12.0938C24.375 11.925 24.4969 11.8125 24.6797 11.8125C24.8625 11.8125 24.9844 11.925 24.9844 12.0938C24.9844 12.2625 24.8625 12.375 24.6797 12.375ZM13.7109 11.8125H22.8516V12.375H13.7109V11.8125ZM28.3359 15.1875H10.6641C10.1766 15.1875 9.75 15.5813 9.75 16.0312V18.2812C9.75 18.7313 10.1766 19.125 10.6641 19.125H28.3359C28.8234 19.125 29.25 18.7313 29.25 18.2812V16.0312C29.25 15.5813 28.8234 15.1875 28.3359 15.1875ZM28.6406 18.2812C28.6406 18.45 28.5187 18.5625 28.3359 18.5625H10.6641C10.4812 18.5625 10.3594 18.45 10.3594 18.2812V16.0312C10.3594 15.8625 10.4812 15.75 10.6641 15.75H28.3359C28.5187 15.75 28.6406 15.8625 28.6406 16.0312V18.2812ZM11.8828 16.3125C11.3953 16.3125 10.9688 16.7062 10.9688 17.1562C10.9688 17.6063 11.3953 18 11.8828 18C12.3703 18 12.7969 17.6063 12.7969 17.1562C12.7969 16.7062 12.3703 16.3125 11.8828 16.3125ZM11.8828 17.4375C11.7 17.4375 11.5781 17.325 11.5781 17.1562C11.5781 16.9875 11.7 16.875 11.8828 16.875C12.0656 16.875 12.1875 16.9875 12.1875 17.1562C12.1875 17.325 12.0656 17.4375 11.8828 17.4375ZM27.1172 16.3125C26.6297 16.3125 26.2031 16.7062 26.2031 17.1562C26.2031 17.6063 26.6297 18 27.1172 18C27.6047 18 28.0312 17.6063 28.0312 17.1562C28.0312 16.7062 27.6047 16.3125 27.1172 16.3125ZM27.1172 17.4375C26.9344 17.4375 26.8125 17.325 26.8125 17.1562C26.8125 16.9875 26.9344 16.875 27.1172 16.875C27.3 16.875 27.4219 16.9875 27.4219 17.1562C27.4219 17.325 27.3 17.4375 27.1172 17.4375ZM24.6797 16.3125C24.1922 16.3125 23.7656 16.7062 23.7656 17.1562C23.7656 17.6063 24.1922 18 24.6797 18C25.1672 18 25.5938 17.6063 25.5938 17.1562C25.5938 16.7062 25.1672 16.3125 24.6797 16.3125ZM24.6797 17.4375C24.4969 17.4375 24.375 17.325 24.375 17.1562C24.375 16.9875 24.4969 16.875 24.6797 16.875C24.8625 16.875 24.9844 16.9875 24.9844 17.1562C24.9844 17.325 24.8625 17.4375 24.6797 17.4375ZM13.7109 16.875H22.8516V17.4375H13.7109V16.875ZM28.3359 20.25H10.6641C10.1766 20.25 9.75 20.6437 9.75 21.0938V23.3438C9.75 23.7938 10.1766 24.1875 10.6641 24.1875H28.3359C28.8234 24.1875 29.25 23.7938 29.25 23.3438V21.0938C29.25 20.6437 28.8234 20.25 28.3359 20.25ZM28.6406 23.3438C28.6406 23.5125 28.5187 23.625 28.3359 23.625H10.6641C10.4812 23.625 10.3594 23.5125 10.3594 23.3438V21.0938C10.3594 20.925 10.4812 20.8125 10.6641 20.8125H28.3359C28.5187 20.8125 28.6406 20.925 28.6406 21.0938V23.3438ZM11.8828 21.375C11.3953 21.375 10.9688 21.7687 10.9688 22.2188C10.9688 22.6688 11.3953 23.0625 11.8828 23.0625C12.3703 23.0625 12.7969 22.6688 12.7969 22.2188C12.7969 21.7687 12.3703 21.375 11.8828 21.375ZM11.8828 22.5C11.7 22.5 11.5781 22.3875 11.5781 22.2188C11.5781 22.05 11.7 21.9375 11.8828 21.9375C12.0656 21.9375 12.1875 22.05 12.1875 22.2188C12.1875 22.3875 12.0656 22.5 11.8828 22.5ZM27.1172 21.375C26.6297 21.375 26.2031 21.7687 26.2031 22.2188C26.2031 22.6688 26.6297 23.0625 27.1172 23.0625C27.6047 23.0625 28.0312 22.6688 28.0312 22.2188C28.0312 21.7687 27.6047 21.375 27.1172 21.375ZM27.1172 22.5C26.9344 22.5 26.8125 22.3875 26.8125 22.2188C26.8125 22.05 26.9344 21.9375 27.1172 21.9375C27.3 21.9375 27.4219 22.05 27.4219 22.2188C27.4219 22.3875 27.3 22.5 27.1172 22.5ZM24.6797 21.375C24.1922 21.375 23.7656 21.7687 23.7656 22.2188C23.7656 22.6688 24.1922 23.0625 24.6797 23.0625C25.1672 23.0625 25.5938 22.6688 25.5938 22.2188C25.5938 21.7687 25.1672 21.375 24.6797 21.375ZM24.6797 22.5C24.4969 22.5 24.375 22.3875 24.375 22.2188C24.375 22.05 24.4969 21.9375 24.6797 21.9375C24.8625 21.9375 24.9844 22.05 24.9844 22.2188C24.9844 22.3875 24.8625 22.5 24.6797 22.5ZM13.7109 21.9375H22.8516V22.5H13.7109V21.9375ZM28.3359 25.3125H10.6641C10.1766 25.3125 9.75 25.7062 9.75 26.1562V28.4062C9.75 28.8563 10.1766 29.25 10.6641 29.25H28.3359C28.8234 29.25 29.25 28.8563 29.25 28.4062V26.1562C29.25 25.7062 28.8234 25.3125 28.3359 25.3125ZM28.6406 28.4062C28.6406 28.575 28.5187 28.6875 28.3359 28.6875H10.6641C10.4812 28.6875 10.3594 28.575 10.3594 28.4062V26.1562C10.3594 25.9875 10.4812 25.875 10.6641 25.875H28.3359C28.5187 25.875 28.6406 25.9875 28.6406 26.1562V28.4062ZM11.8828 26.4375C11.3953 26.4375 10.9688 26.8312 10.9688 27.2812C10.9688 27.7313 11.3953 28.125 11.8828 28.125C12.3703 28.125 12.7969 27.7313 12.7969 27.2812C12.7969 26.8312 12.3703 26.4375 11.8828 26.4375ZM11.8828 27.5625C11.7 27.5625 11.5781 27.45 11.5781 27.2812C11.5781 27.1125 11.7 27 11.8828 27C12.0656 27 12.1875 27.1125 12.1875 27.2812C12.1875 27.45 12.0656 27.5625 11.8828 27.5625ZM27.1172 26.4375C26.6297 26.4375 26.2031 26.8312 26.2031 27.2812C26.2031 27.7313 26.6297 28.125 27.1172 28.125C27.6047 28.125 28.0312 27.7313 28.0312 27.2812C28.0312 26.8312 27.6047 26.4375 27.1172 26.4375ZM27.1172 27.5625C26.9344 27.5625 26.8125 27.45 26.8125 27.2812C26.8125 27.1125 26.9344 27 27.1172 27C27.3 27 27.4219 27.1125 27.4219 27.2812C27.4219 27.45 27.3 27.5625 27.1172 27.5625ZM24.6797 26.4375C24.1922 26.4375 23.7656 26.8312 23.7656 27.2812C23.7656 27.7313 24.1922 28.125 24.6797 28.125C25.1672 28.125 25.5938 27.7313 25.5938 27.2812C25.5938 26.8312 25.1672 26.4375 24.6797 26.4375ZM24.6797 27.5625C24.4969 27.5625 24.375 27.45 24.375 27.2812C24.375 27.1125 24.4969 27 24.6797 27C24.8625 27 24.9844 27.1125 24.9844 27.2812C24.9844 27.45 24.8625 27.5625 24.6797 27.5625ZM13.7109 27H22.8516V27.5625H13.7109V27ZM12.7969 30.9375H26.2031V31.5H12.7969V30.9375ZM4.57031 10.125C5.05781 10.125 5.48438 9.73125 5.48438 9.28125C5.48438 8.83125 5.05781 8.4375 4.57031 8.4375C4.08281 8.4375 3.65625 8.83125 3.65625 9.28125C3.65625 9.73125 4.08281 10.125 4.57031 10.125ZM4.57031 9C4.75313 9 4.875 9.1125 4.875 9.28125C4.875 9.45 4.75313 9.5625 4.57031 9.5625C4.3875 9.5625 4.26562 9.45 4.26562 9.28125C4.26562 9.1125 4.3875 9 4.57031 9ZM4.57031 15.1875C5.05781 15.1875 5.48438 14.7937 5.48438 14.3438C5.48438 13.8938 5.05781 13.5 4.57031 13.5C4.08281 13.5 3.65625 13.8938 3.65625 14.3438C3.65625 14.7937 4.08281 15.1875 4.57031 15.1875ZM4.57031 14.0625C4.75313 14.0625 4.875 14.175 4.875 14.3438C4.875 14.5125 4.75313 14.625 4.57031 14.625C4.3875 14.625 4.26562 14.5125 4.26562 14.3438C4.26562 14.175 4.3875 14.0625 4.57031 14.0625ZM4.57031 20.25C5.05781 20.25 5.48438 19.8563 5.48438 19.4062C5.48438 18.9562 5.05781 18.5625 4.57031 18.5625C4.08281 18.5625 3.65625 18.9562 3.65625 19.4062C3.65625 19.8563 4.08281 20.25 4.57031 20.25ZM4.57031 19.125C4.75313 19.125 4.875 19.2375 4.875 19.4062C4.875 19.575 4.75313 19.6875 4.57031 19.6875C4.3875 19.6875 4.26562 19.575 4.26562 19.4062C4.26562 19.2375 4.3875 19.125 4.57031 19.125ZM4.57031 25.3125C5.05781 25.3125 5.48438 24.9188 5.48438 24.4688C5.48438 24.0187 5.05781 23.625 4.57031 23.625C4.08281 23.625 3.65625 24.0187 3.65625 24.4688C3.65625 24.9188 4.08281 25.3125 4.57031 25.3125ZM4.57031 24.1875C4.75313 24.1875 4.875 24.3 4.875 24.4688C4.875 24.6375 4.75313 24.75 4.57031 24.75C4.3875 24.75 4.26562 24.6375 4.26562 24.4688C4.26562 24.3 4.3875 24.1875 4.57031 24.1875ZM38.3906 29.3625V4.5C38.3906 3.88125 37.8422 3.375 37.1719 3.375H31.6875V1.125C31.6875 0.50625 31.1391 0 30.4688 0H8.53125C7.86094 0 7.3125 0.50625 7.3125 1.125V3.375H1.82812C1.15781 3.375 0.609375 3.88125 0.609375 4.5V29.3625C0.24375 29.5312 0 29.8687 0 30.2063V31.05C0 31.6125 0.548437 32.0625 1.15781 32.0625H7.3125V33.3563C6.94688 33.5812 6.70312 33.9188 6.70312 34.3125V34.875C6.70312 35.4938 7.25156 36 7.92188 36H31.0781C31.7484 36 32.2969 35.4938 32.2969 34.875V34.3125C32.2969 33.9188 32.0531 33.525 31.6875 33.3563V32.0625H37.7812C38.3906 32.1188 38.9391 31.6687 39 31.1062V30.2625C39 29.8687 38.7562 29.5312 38.3906 29.3625ZM37.1719 4.5V29.25H31.6875V28.125H35.9531V27.5625H31.6875V26.4375H35.6484C36.1359 26.4375 36.5625 26.0438 36.5625 25.5938V23.3438C36.5625 22.8937 36.1359 22.5 35.6484 22.5H31.6875V21.375H35.6484C36.1359 21.375 36.5625 20.9813 36.5625 20.5312V18.2812C36.5625 17.8312 36.1359 17.4375 35.6484 17.4375H31.6875V16.3125H35.6484C36.1359 16.3125 36.5625 15.9187 36.5625 15.4688V13.2188C36.5625 12.7688 36.1359 12.375 35.6484 12.375H31.6875V11.25H35.6484C36.1359 11.25 36.5625 10.8562 36.5625 10.4062V8.15625C36.5625 7.70625 36.1359 7.3125 35.6484 7.3125H31.6875V6.1875H35.9531V5.625H31.6875V4.5H37.1719ZM31.6875 23.0625H35.6484C35.8312 23.0625 35.9531 23.175 35.9531 23.3438V25.5938C35.9531 25.7625 35.8312 25.875 35.6484 25.875H31.6875V23.0625ZM31.6875 18H35.6484C35.8312 18 35.9531 18.1125 35.9531 18.2812V20.5312C35.9531 20.7 35.8312 20.8125 35.6484 20.8125H31.6875V18ZM31.6875 12.9375H35.6484C35.8312 12.9375 35.9531 13.05 35.9531 13.2188V15.4688C35.9531 15.6375 35.8312 15.75 35.6484 15.75H31.6875V12.9375ZM31.6875 7.875H35.6484C35.8312 7.875 35.9531 7.9875 35.9531 8.15625V10.4062C35.9531 10.575 35.8312 10.6875 35.6484 10.6875H31.6875V7.875ZM8.53125 1.125H30.4688V33.1875H8.53125V1.125ZM7.3125 10.6875H3.35156C3.16875 10.6875 3.04688 10.575 3.04688 10.4062V8.15625C3.04688 7.9875 3.16875 7.875 3.35156 7.875H7.3125V10.6875ZM7.3125 15.75H3.35156C3.16875 15.75 3.04688 15.6375 3.04688 15.4688V13.2188C3.04688 13.05 3.16875 12.9375 3.35156 12.9375H7.3125V15.75ZM7.3125 20.8125H3.35156C3.16875 20.8125 3.04688 20.7 3.04688 20.5312V18.2812C3.04688 18.1125 3.16875 18 3.35156 18H7.3125V20.8125ZM7.3125 25.875H3.35156C3.16875 25.875 3.04688 25.7625 3.04688 25.5938V23.3438C3.04688 23.175 3.16875 23.0625 3.35156 23.0625H7.3125V25.875ZM1.82812 4.5H7.3125V5.625H3.04688V6.1875H7.3125V7.3125H3.35156C2.86406 7.3125 2.4375 7.70625 2.4375 8.15625V10.4062C2.4375 10.8562 2.86406 11.25 3.35156 11.25H7.3125V12.375H3.35156C2.86406 12.375 2.4375 12.7688 2.4375 13.2188V15.4688C2.4375 15.9187 2.86406 16.3125 3.35156 16.3125H7.3125V17.4375H3.35156C2.86406 17.4375 2.4375 17.8312 2.4375 18.2812V20.5312C2.4375 20.9813 2.86406 21.375 3.35156 21.375H7.3125V22.5H3.35156C2.86406 22.5 2.4375 22.8937 2.4375 23.3438V25.5938C2.4375 26.0438 2.86406 26.4375 3.35156 26.4375H7.3125V27.5625H3.04688V28.125H7.3125V29.25H1.82812V4.5ZM1.21875 30.9375V30.375H7.3125V30.9375H1.21875ZM7.92188 34.875V34.3125H31.0781V34.875H7.92188ZM37.7812 30.9375H31.6875V30.375H37.7812V30.9375ZM34.4297 8.4375C33.9422 8.4375 33.5156 8.83125 33.5156 9.28125C33.5156 9.73125 33.9422 10.125 34.4297 10.125C34.9172 10.125 35.3438 9.73125 35.3438 9.28125C35.3438 8.83125 34.9172 8.4375 34.4297 8.4375ZM34.4297 9.5625C34.2469 9.5625 34.125 9.45 34.125 9.28125C34.125 9.1125 34.2469 9 34.4297 9C34.6125 9 34.7344 9.1125 34.7344 9.28125C34.7344 9.45 34.6125 9.5625 34.4297 9.5625ZM34.4297 13.5C33.9422 13.5 33.5156 13.8938 33.5156 14.3438C33.5156 14.7937 33.9422 15.1875 34.4297 15.1875C34.9172 15.1875 35.3438 14.7937 35.3438 14.3438C35.3438 13.8938 34.9172 13.5 34.4297 13.5ZM34.4297 14.625C34.2469 14.625 34.125 14.5125 34.125 14.3438C34.125 14.175 34.2469 14.0625 34.4297 14.0625C34.6125 14.0625 34.7344 14.175 34.7344 14.3438C34.7344 14.5125 34.6125 14.625 34.4297 14.625ZM34.4297 18.5625C33.9422 18.5625 33.5156 18.9562 33.5156 19.4062C33.5156 19.8563 33.9422 20.25 34.4297 20.25C34.9172 20.25 35.3438 19.8563 35.3438 19.4062C35.3438 18.9562 34.9172 18.5625 34.4297 18.5625ZM34.4297 19.6875C34.2469 19.6875 34.125 19.575 34.125 19.4062C34.125 19.2375 34.2469 19.125 34.4297 19.125C34.6125 19.125 34.7344 19.2375 34.7344 19.4062C34.7344 19.575 34.6125 19.6875 34.4297 19.6875ZM34.4297 23.625C33.9422 23.625 33.5156 24.0187 33.5156 24.4688C33.5156 24.9188 33.9422 25.3125 34.4297 25.3125C34.9172 25.3125 35.3438 24.9188 35.3438 24.4688C35.3438 24.0187 34.9172 23.625 34.4297 23.625ZM34.4297 24.75C34.2469 24.75 34.125 24.6375 34.125 24.4688C34.125 24.3 34.2469 24.1875 34.4297 24.1875C34.6125 24.1875 34.7344 24.3 34.7344 24.4688C34.7344 24.6375 34.6125 24.75 34.4297 24.75Z" fill="#0082FA"/>
</svg>
